<mxfile host="app.diagrams.net" agent="Mozilla/5.0 (Macintosh; Intel Mac OS X 10_15_7) AppleWebKit/537.36 (KHTML, like Gecko) Chrome/126.0.0.0 YaBrowser/24.7.0.0 Safari/537.36" version="24.8.2" pages="3">
  <diagram name="Страница — 1" id="p50MMosPqnn7whgFtkuO">
    <mxGraphModel dx="2397" dy="1392" grid="1" gridSize="10" guides="1" tooltips="1" connect="1" arrows="1" fold="1" page="1" pageScale="1" pageWidth="827" pageHeight="1169" math="0" shadow="0">
      <root>
        <mxCell id="0" />
        <mxCell id="1" parent="0" />
        <mxCell id="U8kr31JjeDutOu_ES1rp-2" value="" style="rounded=0;whiteSpace=wrap;html=1;fillColor=#e5f0ff;strokeColor=#6c8ebf;" parent="1" vertex="1">
          <mxGeometry x="260" y="420" width="460" height="400" as="geometry" />
        </mxCell>
        <mxCell id="U8kr31JjeDutOu_ES1rp-16" style="edgeStyle=orthogonalEdgeStyle;rounded=0;orthogonalLoop=1;jettySize=auto;html=1;curved=1;endArrow=block;endFill=0;" parent="1" source="U8kr31JjeDutOu_ES1rp-3" edge="1">
          <mxGeometry relative="1" as="geometry">
            <mxPoint x="180" y="585" as="targetPoint" />
          </mxGeometry>
        </mxCell>
        <mxCell id="U8kr31JjeDutOu_ES1rp-23" style="edgeStyle=orthogonalEdgeStyle;rounded=0;orthogonalLoop=1;jettySize=auto;html=1;curved=1;endArrow=block;endFill=0;" parent="1" source="U8kr31JjeDutOu_ES1rp-3" target="U8kr31JjeDutOu_ES1rp-10" edge="1">
          <mxGeometry relative="1" as="geometry" />
        </mxCell>
        <mxCell id="U8kr31JjeDutOu_ES1rp-24" style="edgeStyle=orthogonalEdgeStyle;rounded=0;orthogonalLoop=1;jettySize=auto;html=1;curved=1;endArrow=block;endFill=0;" parent="1" source="U8kr31JjeDutOu_ES1rp-3" target="U8kr31JjeDutOu_ES1rp-11" edge="1">
          <mxGeometry relative="1" as="geometry" />
        </mxCell>
        <mxCell id="U8kr31JjeDutOu_ES1rp-3" value="Admin" style="shape=umlActor;verticalLabelPosition=bottom;verticalAlign=top;html=1;outlineConnect=0;" parent="1" vertex="1">
          <mxGeometry x="170" y="680" width="30" height="60" as="geometry" />
        </mxCell>
        <mxCell id="U8kr31JjeDutOu_ES1rp-18" style="edgeStyle=orthogonalEdgeStyle;rounded=0;orthogonalLoop=1;jettySize=auto;html=1;curved=1;endArrow=block;endFill=0;" parent="1" source="U8kr31JjeDutOu_ES1rp-4" target="U8kr31JjeDutOu_ES1rp-8" edge="1">
          <mxGeometry relative="1" as="geometry" />
        </mxCell>
        <mxCell id="U8kr31JjeDutOu_ES1rp-19" style="edgeStyle=orthogonalEdgeStyle;rounded=0;orthogonalLoop=1;jettySize=auto;html=1;curved=1;endArrow=block;endFill=0;" parent="1" source="U8kr31JjeDutOu_ES1rp-4" target="U8kr31JjeDutOu_ES1rp-12" edge="1">
          <mxGeometry relative="1" as="geometry" />
        </mxCell>
        <mxCell id="U8kr31JjeDutOu_ES1rp-4" value="User" style="shape=umlActor;verticalLabelPosition=bottom;verticalAlign=top;html=1;outlineConnect=0;" parent="1" vertex="1">
          <mxGeometry x="160" y="495" width="30" height="60" as="geometry" />
        </mxCell>
        <mxCell id="U8kr31JjeDutOu_ES1rp-7" value="Verification of credentials" style="ellipse;whiteSpace=wrap;html=1;" parent="1" vertex="1">
          <mxGeometry x="530" y="495" width="120" height="60" as="geometry" />
        </mxCell>
        <mxCell id="U8kr31JjeDutOu_ES1rp-47" style="edgeStyle=orthogonalEdgeStyle;rounded=0;orthogonalLoop=1;jettySize=auto;html=1;curved=1;dashed=1;" parent="1" source="U8kr31JjeDutOu_ES1rp-8" target="U8kr31JjeDutOu_ES1rp-7" edge="1">
          <mxGeometry relative="1" as="geometry" />
        </mxCell>
        <mxCell id="U8kr31JjeDutOu_ES1rp-49" value="&amp;lt;&amp;lt;include&amp;gt;&amp;gt;" style="edgeLabel;html=1;align=center;verticalAlign=middle;resizable=0;points=[];" parent="U8kr31JjeDutOu_ES1rp-47" vertex="1" connectable="0">
          <mxGeometry x="-0.4254" y="-7" relative="1" as="geometry">
            <mxPoint as="offset" />
          </mxGeometry>
        </mxCell>
        <mxCell id="U8kr31JjeDutOu_ES1rp-8" value="Reset login/password" style="ellipse;whiteSpace=wrap;html=1;" parent="1" vertex="1">
          <mxGeometry x="310" y="455" width="120" height="60" as="geometry" />
        </mxCell>
        <mxCell id="U8kr31JjeDutOu_ES1rp-10" value="Unlocking the user" style="ellipse;whiteSpace=wrap;html=1;" parent="1" vertex="1">
          <mxGeometry x="310" y="740" width="120" height="60" as="geometry" />
        </mxCell>
        <mxCell id="U8kr31JjeDutOu_ES1rp-22" style="edgeStyle=orthogonalEdgeStyle;rounded=0;orthogonalLoop=1;jettySize=auto;html=1;dashed=1;curved=1;" parent="1" source="U8kr31JjeDutOu_ES1rp-11" target="U8kr31JjeDutOu_ES1rp-12" edge="1">
          <mxGeometry relative="1" as="geometry" />
        </mxCell>
        <mxCell id="U8kr31JjeDutOu_ES1rp-25" value="&amp;lt;&amp;lt;extend&amp;gt;&amp;gt;" style="edgeLabel;html=1;align=center;verticalAlign=middle;resizable=0;points=[];" parent="U8kr31JjeDutOu_ES1rp-22" vertex="1" connectable="0">
          <mxGeometry x="0.4726" y="-24" relative="1" as="geometry">
            <mxPoint as="offset" />
          </mxGeometry>
        </mxCell>
        <mxCell id="U8kr31JjeDutOu_ES1rp-11" value="User Lockout" style="ellipse;whiteSpace=wrap;html=1;" parent="1" vertex="1">
          <mxGeometry x="550" y="640" width="120" height="60" as="geometry" />
        </mxCell>
        <mxCell id="U8kr31JjeDutOu_ES1rp-48" style="edgeStyle=orthogonalEdgeStyle;rounded=0;orthogonalLoop=1;jettySize=auto;html=1;curved=1;dashed=1;" parent="1" source="U8kr31JjeDutOu_ES1rp-12" target="U8kr31JjeDutOu_ES1rp-7" edge="1">
          <mxGeometry relative="1" as="geometry" />
        </mxCell>
        <mxCell id="U8kr31JjeDutOu_ES1rp-50" value="&amp;lt;&amp;lt;include&amp;gt;&amp;gt;" style="edgeLabel;html=1;align=center;verticalAlign=middle;resizable=0;points=[];" parent="U8kr31JjeDutOu_ES1rp-48" vertex="1" connectable="0">
          <mxGeometry x="-0.1387" y="3" relative="1" as="geometry">
            <mxPoint as="offset" />
          </mxGeometry>
        </mxCell>
        <mxCell id="U8kr31JjeDutOu_ES1rp-12" value="Authorisation error" style="ellipse;whiteSpace=wrap;html=1;" parent="1" vertex="1">
          <mxGeometry x="310" y="540" width="120" height="60" as="geometry" />
        </mxCell>
        <mxCell id="U8kr31JjeDutOu_ES1rp-27" value="&lt;b&gt;ASDs&lt;/b&gt;" style="text;html=1;align=center;verticalAlign=middle;resizable=0;points=[];autosize=1;strokeColor=none;fillColor=none;" parent="1" vertex="1">
          <mxGeometry x="465" y="420" width="50" height="26" as="geometry" />
        </mxCell>
      </root>
    </mxGraphModel>
  </diagram>
  <diagram id="GEv-Fl3iQHqSCWa9Y-rI" name="Страница — 2">
    <mxGraphModel dx="1798" dy="1044" grid="1" gridSize="10" guides="1" tooltips="1" connect="1" arrows="1" fold="1" page="1" pageScale="1" pageWidth="827" pageHeight="1169" math="0" shadow="0">
      <root>
        <mxCell id="0" />
        <mxCell id="1" parent="0" />
        <mxCell id="wmd9OnhbFKFpm1UmXDr_-1" value="" style="rounded=0;whiteSpace=wrap;html=1;fillColor=#e5f0ff;strokeColor=#6c8ebf;" vertex="1" parent="1">
          <mxGeometry x="234" y="490" width="460" height="210" as="geometry" />
        </mxCell>
        <mxCell id="wmd9OnhbFKFpm1UmXDr_-2" style="edgeStyle=orthogonalEdgeStyle;rounded=0;orthogonalLoop=1;jettySize=auto;html=1;curved=1;endArrow=block;endFill=0;" edge="1" parent="1" source="wmd9OnhbFKFpm1UmXDr_-3" target="wmd9OnhbFKFpm1UmXDr_-6">
          <mxGeometry relative="1" as="geometry" />
        </mxCell>
        <mxCell id="wmd9OnhbFKFpm1UmXDr_-3" value="User" style="shape=umlActor;verticalLabelPosition=bottom;verticalAlign=top;html=1;outlineConnect=0;" vertex="1" parent="1">
          <mxGeometry x="134" y="565" width="30" height="60" as="geometry" />
        </mxCell>
        <mxCell id="wmd9OnhbFKFpm1UmXDr_-4" style="edgeStyle=orthogonalEdgeStyle;rounded=0;orthogonalLoop=1;jettySize=auto;html=1;entryX=0;entryY=0.5;entryDx=0;entryDy=0;dashed=1;curved=1;" edge="1" parent="1" source="wmd9OnhbFKFpm1UmXDr_-6" target="wmd9OnhbFKFpm1UmXDr_-11">
          <mxGeometry relative="1" as="geometry">
            <Array as="points">
              <mxPoint x="334" y="650" />
            </Array>
          </mxGeometry>
        </mxCell>
        <mxCell id="wmd9OnhbFKFpm1UmXDr_-5" value="&amp;lt;&amp;lt;extend&amp;gt;&amp;gt;" style="edgeLabel;html=1;align=center;verticalAlign=middle;resizable=0;points=[];" vertex="1" connectable="0" parent="wmd9OnhbFKFpm1UmXDr_-4">
          <mxGeometry x="-0.0128" y="-2" relative="1" as="geometry">
            <mxPoint as="offset" />
          </mxGeometry>
        </mxCell>
        <mxCell id="wmd9OnhbFKFpm1UmXDr_-6" value="Create backup" style="ellipse;whiteSpace=wrap;html=1;" vertex="1" parent="1">
          <mxGeometry x="274" y="525" width="120" height="60" as="geometry" />
        </mxCell>
        <mxCell id="wmd9OnhbFKFpm1UmXDr_-7" value="&lt;b&gt;ASDs&lt;/b&gt;" style="text;html=1;align=center;verticalAlign=middle;resizable=0;points=[];autosize=1;strokeColor=none;fillColor=none;" vertex="1" parent="1">
          <mxGeometry x="439" y="490" width="50" height="26" as="geometry" />
        </mxCell>
        <mxCell id="wmd9OnhbFKFpm1UmXDr_-8" style="edgeStyle=orthogonalEdgeStyle;rounded=0;orthogonalLoop=1;jettySize=auto;html=1;curved=1;dashed=1;" edge="1" parent="1" source="wmd9OnhbFKFpm1UmXDr_-10" target="wmd9OnhbFKFpm1UmXDr_-6">
          <mxGeometry relative="1" as="geometry" />
        </mxCell>
        <mxCell id="wmd9OnhbFKFpm1UmXDr_-9" value="&amp;lt;&amp;lt;include&amp;gt;&amp;gt;" style="edgeLabel;html=1;align=center;verticalAlign=middle;resizable=0;points=[];" vertex="1" connectable="0" parent="wmd9OnhbFKFpm1UmXDr_-8">
          <mxGeometry x="-0.0376" relative="1" as="geometry">
            <mxPoint as="offset" />
          </mxGeometry>
        </mxCell>
        <mxCell id="wmd9OnhbFKFpm1UmXDr_-10" value="Error handler" style="ellipse;whiteSpace=wrap;html=1;" vertex="1" parent="1">
          <mxGeometry x="524" y="525" width="120" height="60" as="geometry" />
        </mxCell>
        <mxCell id="wmd9OnhbFKFpm1UmXDr_-11" value="Rollback backup" style="ellipse;whiteSpace=wrap;html=1;" vertex="1" parent="1">
          <mxGeometry x="464" y="620" width="120" height="60" as="geometry" />
        </mxCell>
      </root>
    </mxGraphModel>
  </diagram>
  <diagram id="gf2QjZDrKObe0dLvuFiG" name="Страница — 3">
    <mxGraphModel dx="1798" dy="-125" grid="1" gridSize="10" guides="1" tooltips="1" connect="1" arrows="1" fold="1" page="1" pageScale="1" pageWidth="827" pageHeight="1169" math="0" shadow="0">
      <root>
        <mxCell id="0" />
        <mxCell id="1" parent="0" />
        <mxCell id="OxGlFsLyXI40AdONwTPO-1" value="" style="rounded=0;whiteSpace=wrap;html=1;fillColor=#e5f0ff;strokeColor=#6c8ebf;" vertex="1" parent="1">
          <mxGeometry x="234" y="1530" width="460" height="210" as="geometry" />
        </mxCell>
        <mxCell id="OxGlFsLyXI40AdONwTPO-2" style="edgeStyle=orthogonalEdgeStyle;rounded=0;orthogonalLoop=1;jettySize=auto;html=1;curved=1;endArrow=block;endFill=0;" edge="1" parent="1" source="OxGlFsLyXI40AdONwTPO-3" target="OxGlFsLyXI40AdONwTPO-6">
          <mxGeometry relative="1" as="geometry" />
        </mxCell>
        <mxCell id="OxGlFsLyXI40AdONwTPO-3" value="User" style="shape=umlActor;verticalLabelPosition=bottom;verticalAlign=top;html=1;outlineConnect=0;" vertex="1" parent="1">
          <mxGeometry x="134" y="1605" width="30" height="60" as="geometry" />
        </mxCell>
        <mxCell id="OxGlFsLyXI40AdONwTPO-4" style="edgeStyle=orthogonalEdgeStyle;rounded=0;orthogonalLoop=1;jettySize=auto;html=1;entryX=0;entryY=0.5;entryDx=0;entryDy=0;dashed=1;curved=1;" edge="1" parent="1" source="OxGlFsLyXI40AdONwTPO-6" target="OxGlFsLyXI40AdONwTPO-11">
          <mxGeometry relative="1" as="geometry">
            <Array as="points">
              <mxPoint x="334" y="1690" />
            </Array>
          </mxGeometry>
        </mxCell>
        <mxCell id="OxGlFsLyXI40AdONwTPO-5" value="&amp;lt;&amp;lt;extend&amp;gt;&amp;gt;" style="edgeLabel;html=1;align=center;verticalAlign=middle;resizable=0;points=[];" vertex="1" connectable="0" parent="OxGlFsLyXI40AdONwTPO-4">
          <mxGeometry x="-0.0128" y="-2" relative="1" as="geometry">
            <mxPoint as="offset" />
          </mxGeometry>
        </mxCell>
        <mxCell id="OxGlFsLyXI40AdONwTPO-6" value="Installing the application version" style="ellipse;whiteSpace=wrap;html=1;" vertex="1" parent="1">
          <mxGeometry x="274" y="1565" width="120" height="60" as="geometry" />
        </mxCell>
        <mxCell id="OxGlFsLyXI40AdONwTPO-7" value="&lt;b&gt;ASDs&lt;/b&gt;" style="text;html=1;align=center;verticalAlign=middle;resizable=0;points=[];autosize=1;strokeColor=none;fillColor=none;" vertex="1" parent="1">
          <mxGeometry x="439" y="1530" width="50" height="26" as="geometry" />
        </mxCell>
        <mxCell id="OxGlFsLyXI40AdONwTPO-8" style="edgeStyle=orthogonalEdgeStyle;rounded=0;orthogonalLoop=1;jettySize=auto;html=1;curved=1;dashed=1;" edge="1" parent="1" source="OxGlFsLyXI40AdONwTPO-10" target="OxGlFsLyXI40AdONwTPO-6">
          <mxGeometry relative="1" as="geometry" />
        </mxCell>
        <mxCell id="OxGlFsLyXI40AdONwTPO-9" value="&amp;lt;&amp;lt;include&amp;gt;&amp;gt;" style="edgeLabel;html=1;align=center;verticalAlign=middle;resizable=0;points=[];" vertex="1" connectable="0" parent="OxGlFsLyXI40AdONwTPO-8">
          <mxGeometry x="-0.0376" relative="1" as="geometry">
            <mxPoint as="offset" />
          </mxGeometry>
        </mxCell>
        <mxCell id="OxGlFsLyXI40AdONwTPO-10" value="Error handler" style="ellipse;whiteSpace=wrap;html=1;" vertex="1" parent="1">
          <mxGeometry x="524" y="1565" width="120" height="60" as="geometry" />
        </mxCell>
        <mxCell id="OxGlFsLyXI40AdONwTPO-11" value="Rollback version" style="ellipse;whiteSpace=wrap;html=1;" vertex="1" parent="1">
          <mxGeometry x="464" y="1660" width="120" height="60" as="geometry" />
        </mxCell>
      </root>
    </mxGraphModel>
  </diagram>
</mxfile>
